<?xml version="1.0" encoding="UTF-8"?>
<!DOCTYPE svg PUBLIC "-//W3C//DTD SVG 1.0//EN" "http://www.w3.org/TR/2001/REC-SVG-20010904/DTD/svg10.dtd">
<!-- Creator: CorelDRAW 2021.5 -->
<svg xmlns="http://www.w3.org/2000/svg" xml:space="preserve" width="86.2126mm" height="72.0759mm" version="1.0" style="shape-rendering:geometricPrecision; text-rendering:geometricPrecision; image-rendering:optimizeQuality; fill-rule:evenodd; clip-rule:evenodd"
viewBox="0 0 6737.49 5632.71"
 xmlns:xlink="http://www.w3.org/1999/xlink"
 xmlns:xodm="http://www.corel.com/coreldraw/odm/2003">
 <defs>
  <style type="text/css">
   <![CDATA[
    .fil5 {fill:none}
    .fil3 {fill:#F7B277}
    .fil1 {fill:url(#id1)}
    .fil2 {fill:url(#id2)}
    .fil4 {fill:url(#id3)}
    .fil0 {fill:url(#id4)}
   ]]>
  </style>
    <clipPath id="id0">
     <path d="M1821.61 1434.06c362.94,220.3 725.85,440.63 1103.26,710.36 377.41,269.72 769.27,588.87 1036.95,891.89 267.67,303.03 411.11,589.96 469.58,829.04 58.46,239.08 31.9,430.35 5.35,621.59 163.08,-14.97 326.14,-29.94 485.77,-58.14 159.64,-28.2 315.82,-69.63 472,-111.07 -10.48,-278.2 -20.94,-556.41 10.68,-799.64 31.61,-243.25 105.3,-451.52 200.11,-609.22 94.8,-157.71 210.71,-264.82 352.03,-345.2 141.32,-80.38 308.05,-134.03 474.78,-187.67 -325.5,-25.4 -650.99,-50.77 -880.12,-172 -229.14,-121.23 -361.92,-338.31 -450.12,-528.45 -88.22,-190.16 -131.87,-353.39 -109.3,-576.09 22.56,-222.71 111.37,-504.89 200.16,-787.05 -218.95,249.95 -437.92,499.88 -739.49,590.78 -301.6,90.88 -685.79,22.72 -939.15,-154.31 -253.35,-177.05 -375.86,-462.97 -498.35,-748.87 -7.64,370.6 -15.27,741.2 -214.29,980.21 -199.02,239.01 -589.42,346.43 -979.84,453.85z"/>
    </clipPath>
  <linearGradient id="id1" gradientUnits="userSpaceOnUse" x1="0.05" y1="2591.54" x2="3937.36" y2="2591.47">
   <stop offset="0" style="stop-opacity:1; stop-color:#81BE61"/>
   <stop offset="1" style="stop-opacity:1; stop-color:#23904D"/>
  </linearGradient>
  <linearGradient id="id2" gradientUnits="userSpaceOnUse" xlink:href="#id1" x1="6458.63" y1="4207.98" x2="3786.25" y2="4208">
  </linearGradient>
  <linearGradient id="id3" gradientUnits="userSpaceOnUse" x1="4447.01" y1="109.79" x2="4447.01" y2="4596.74">
   <stop offset="0" style="stop-opacity:1; stop-color:#F6A753"/>
   <stop offset="1" style="stop-opacity:1; stop-color:#EE7532"/>
  </linearGradient>
  <linearGradient id="id4" gradientUnits="userSpaceOnUse" x1="0.05" y1="2591.54" x2="6836.2" y2="2591.47">
   <stop offset="0" style="stop-opacity:1; stop-color:#55B04F"/>
   <stop offset="1" style="stop-opacity:1; stop-color:#0A804B"/>
  </linearGradient>
 </defs>
 <g id="Layer_x0020_1">
  <metadata id="CorelCorpID_0Corel-Layer"/>
  <g id="_2573888889744">
   <path class="fil0" d="M786.89 600.69c37.79,1379.32 3178.97,1666.11 3178.97,3588.19 0,106.51 -58.88,310.15 -43.69,366.83 -1490.86,0 -2071.91,-724.48 -2613.76,-1448.95 0,184.31 443.9,1838.93 2636.3,1838.93 755.69,0 2265.91,-261.15 2265.91,-698.64 0,-187.45 -442.67,-392.44 -442.67,-392.44 0,0 76.49,-17.83 185.78,-17.83 264.95,0 783.77,197.96 783.77,533.77 0,676.69 -1467.98,1262.15 -2751.23,1262.15 -2741.14,0 -3975.45,-1590.14 -3986.21,-3041.17 -7.08,-956.43 786.83,-1990.85 786.83,-1990.85z"/>
   <path class="fil1" d="M221.77 3112.36c-68.9,-725.17 253.54,-1424.02 614.44,-2120.28 130.92,279.96 301.87,539.44 556.89,755.9 486.75,413.15 1279.79,669.57 1814.04,1125.45 310.47,264.94 533.54,597.24 719.99,957.76 -326.13,-1456.42 -2612.32,-1867.83 -3063.39,-2892.08 -46.54,-105.68 -73.55,-217.87 -76.84,-338.41 0,0 -27.4,35.68 -71.97,99.94 -195.34,281.65 -720.63,1112.13 -714.87,1890.91 4.22,570.66 197.7,1162.83 597.64,1671.34 -198.16,-388.4 -340.07,-773.02 -375.92,-1150.52z"/>
   <path class="fil2" d="M6210.61 4247.06c0,437.48 -1510.22,698.64 -2265.91,698.64 -45.94,0 -91.12,-0.73 -135.54,-2.15 295.39,72.71 596.89,112.2 909.16,93.19 722.85,-44.04 1503.48,-401.56 1688.05,-650.82 184.55,-249.26 -226.93,-390.29 -638.43,-531.29 0,0 442.67,204.99 442.67,392.44z"/>
   <path class="fil3" d="M1821.61 1434.06c362.94,220.3 725.85,440.63 1103.26,710.36 377.41,269.72 769.27,588.87 1036.95,891.89 267.67,303.03 411.11,589.96 469.58,829.04 58.46,239.08 31.9,430.35 5.35,621.59 163.08,-14.97 326.14,-29.94 485.77,-58.14 159.64,-28.2 315.82,-69.63 472,-111.07 -10.48,-278.2 -20.94,-556.41 10.68,-799.64 31.61,-243.25 105.3,-451.52 200.11,-609.22 94.8,-157.71 210.71,-264.82 352.03,-345.2 141.32,-80.38 308.05,-134.03 474.78,-187.67 -325.5,-25.4 -650.99,-50.77 -880.12,-172 -229.14,-121.23 -361.92,-338.31 -450.12,-528.45 -88.22,-190.16 -131.87,-353.39 -109.3,-576.09 22.56,-222.71 111.37,-504.89 200.16,-787.05 -218.95,249.95 -437.92,499.88 -739.49,590.78 -301.6,90.88 -685.79,22.72 -939.15,-154.31 -253.35,-177.05 -375.86,-462.97 -498.35,-748.87 -7.64,370.6 -15.27,741.2 -214.29,980.21 -199.02,239.01 -589.42,346.43 -979.84,453.85z"/>
   <g style="clip-path:url(#id0)">
    <g>
     <path id="_1" class="fil4" d="M1846.01 1543.86c362.93,220.31 725.84,440.64 1103.25,710.37 377.41,269.72 769.27,588.87 1036.96,891.89 267.66,303.03 411.11,589.96 469.57,829.04 58.46,239.08 31.91,430.35 5.36,621.59 163.08,-14.97 326.14,-29.94 485.77,-58.14 159.63,-28.2 315.81,-69.63 471.99,-111.07 -10.47,-278.2 -20.94,-556.41 10.68,-799.64 31.61,-243.25 105.3,-451.52 200.1,-609.22 94.81,-157.71 210.72,-264.83 352.03,-345.2 141.32,-80.38 308.05,-134.03 474.78,-187.67 -325.5,-25.4 -650.98,-50.77 -880.11,-172 -229.14,-121.23 -361.93,-338.31 -450.13,-528.45 -88.22,-190.17 -131.87,-353.39 -109.3,-576.09 22.57,-222.71 111.38,-504.89 200.16,-787.05 -218.95,249.94 -437.92,499.88 -739.49,590.78 -301.6,90.88 -685.8,22.72 -939.15,-154.31 -253.35,-177.05 -375.87,-462.97 -498.36,-748.87 -7.64,370.59 -15.26,741.2 -214.29,980.2 -199.03,239.01 -589.43,346.44 -979.84,453.85z"/>
    </g>
   </g>
   <path class="fil5" d="M1821.61 1434.06c362.94,220.3 725.85,440.63 1103.26,710.36 377.41,269.72 769.27,588.87 1036.95,891.89 267.67,303.03 411.11,589.96 469.58,829.04 58.46,239.08 31.9,430.35 5.35,621.59 163.08,-14.97 326.14,-29.94 485.77,-58.14 159.64,-28.2 315.82,-69.63 472,-111.07 -10.48,-278.2 -20.94,-556.41 10.68,-799.64 31.61,-243.25 105.3,-451.52 200.11,-609.22 94.8,-157.71 210.71,-264.82 352.03,-345.2 141.32,-80.38 308.05,-134.03 474.78,-187.67 -325.5,-25.4 -650.99,-50.77 -880.12,-172 -229.14,-121.23 -361.92,-338.31 -450.12,-528.45 -88.22,-190.16 -131.87,-353.39 -109.3,-576.09 22.56,-222.71 111.37,-504.89 200.16,-787.05 -218.95,249.95 -437.92,499.88 -739.49,590.78 -301.6,90.88 -685.79,22.72 -939.15,-154.31 -253.35,-177.05 -375.86,-462.97 -498.35,-748.87 -7.64,370.6 -15.27,741.2 -214.29,980.21 -199.02,239.01 -589.42,346.43 -979.84,453.85z"/>
  </g>
 </g>
</svg>
